<svg width="15" height="15" viewBox="0 0 15 15" fill="none" xmlns="http://www.w3.org/2000/svg">
<path fill-rule="evenodd" clip-rule="evenodd" d="M12.3178 14.1964L6.10364 7.98229C5.69869 7.57733 5.69869 6.92278 6.10364 6.51783L12.3178 0.303715C12.7227 -0.101238 13.3773 -0.101238 13.7822 0.303715C14.1872 0.708668 14.1872 1.36322 13.7822 1.76817L8.30033 7.25006L13.7822 12.7319C14.1872 13.1369 14.1872 13.7914 13.7822 14.1964C13.5803 14.3984 13.3151 14.4999 13.05 14.4999C12.7848 14.4999 12.5197 14.3984 12.3178 14.1964Z" fill="#FF464F"/>
<path fill-rule="evenodd" clip-rule="evenodd" d="M1.76819 0.303603L7.9823 6.51771C8.38725 6.92267 8.38725 7.57722 7.9823 7.98217L1.76819 14.1963C1.36323 14.6012 0.70868 14.6012 0.303727 14.1963C-0.101226 13.7913 -0.101226 13.1368 0.303727 12.7318L5.78561 7.24994L0.303727 1.76806C-0.101226 1.36311 -0.101226 0.708556 0.303727 0.303603C0.505685 0.101645 0.770821 0.000146866 1.03596 0.000146866C1.30109 0.000146866 1.56623 0.101645 1.76819 0.303603Z" fill="#FF464F"/>
</svg>
