<svg width="22" height="21" viewBox="0 0 22 21" fill="none" xmlns="http://www.w3.org/2000/svg">
<path fill-rule="evenodd" clip-rule="evenodd" d="M11 0C4.93462 0 2.95634e-05 4.46232 2.95634e-05 9.94737C2.95634e-05 11.8646 0.603562 13.7218 1.74829 15.3278C1.53159 17.7362 0.950795 19.5241 0.107463 20.3711C-0.00400376 20.4831 -0.0318704 20.6544 0.0385295 20.7959C0.100863 20.9223 0.229196 21 0.366696 21C0.383562 21 0.400429 20.9989 0.417662 20.9963C0.566162 20.9753 4.01576 20.4765 6.51092 19.0293C7.92772 19.6037 9.43692 19.8947 11 19.8947C17.0654 19.8947 22 15.4324 22 9.94737C22 4.46232 17.0654 0 11 0ZM5.86669 11.4211C5.05782 11.4211 4.40002 10.7601 4.40002 9.94737C4.40002 9.13463 5.05782 8.47368 5.86669 8.47368C6.67555 8.47368 7.33335 9.13463 7.33335 9.94737C7.33335 10.7601 6.67555 11.4211 5.86669 11.4211ZM11 11.4211C10.1911 11.4211 9.53335 10.7601 9.53335 9.94737C9.53335 9.13463 10.1911 8.47368 11 8.47368C11.8089 8.47368 12.4667 9.13463 12.4667 9.94737C12.4667 10.7601 11.8089 11.4211 11 11.4211ZM16.1333 11.4211C15.3245 11.4211 14.6667 10.7601 14.6667 9.94737C14.6667 9.13463 15.3245 8.47368 16.1333 8.47368C16.9422 8.47368 17.6 9.13463 17.6 9.94737C17.6 10.7601 16.9422 11.4211 16.1333 11.4211Z" fill="#FF5252"/>
</svg>
