<svg width="40" height="43" viewBox="0 0 40 43" fill="none" xmlns="http://www.w3.org/2000/svg">
<g filter="url(#filter0_d)">
<path d="M4 9.58676V13.7634C4 14.827 4.86216 15.6891 5.92575 15.6891H18.7543V7.66101H5.92575C4.86216 7.66101 4 8.52317 4 9.58676Z" fill="white"/>
<path d="M33.9252 7.66101H21.0967V15.6891H33.9252C34.9888 15.6891 35.8509 14.827 35.8509 13.7634V9.58676C35.8509 8.52317 34.9888 7.66101 33.9252 7.66101Z" fill="white"/>
<path d="M5.78711 33.7523C5.78711 34.4414 6.34555 34.9999 7.03465 34.9999H18.7509V17.1112H5.78711V33.7523Z" fill="white"/>
<path d="M21.0967 34.9999H32.813C33.5021 34.9999 34.0605 34.4414 34.0605 33.7523V17.1112H21.0967V34.9999Z" fill="white"/>
<path d="M11.7161 6.30575C12.1198 6.53092 12.9407 6.82997 15.3996 6.82997C16.7549 6.82997 17.9542 6.73742 18.0044 6.73353C18.2758 6.71253 18.5189 6.55658 18.6515 6.31859C18.7841 6.08059 18.7887 5.79204 18.6639 5.54976C18.2925 4.82877 16.3691 1.19349 14.9932 0.426606C14.4927 0.147387 13.9269 0 13.3568 0C12.1361 0 11.0087 0.661881 10.4149 1.72742C9.51152 3.34868 10.0952 5.40238 11.7161 6.30575ZM11.8363 2.51958C12.1431 1.96892 12.7256 1.62709 13.3568 1.62709C13.6504 1.62709 13.9421 1.70331 14.2007 1.84759C14.7055 2.12914 15.729 3.63023 16.6114 5.17877C16.2462 5.19238 15.8293 5.2021 15.3992 5.2021C13.246 5.2021 12.642 4.95866 12.5079 4.88399C11.6714 4.41772 11.3696 3.35685 11.8363 2.51958Z" fill="white"/>
<path d="M21.8467 6.73353C21.8972 6.73742 23.0961 6.82997 24.4514 6.82997C26.9103 6.82997 27.7312 6.53092 28.1349 6.30575C29.7558 5.40238 30.3395 3.34868 29.4361 1.72742C28.8423 0.661881 27.7149 0 26.4942 0C25.9241 0 25.3583 0.147387 24.8578 0.426217C23.4819 1.1931 21.5585 4.82838 21.1871 5.54937C21.0623 5.79165 21.0669 6.0802 21.1995 6.3182C21.3322 6.55658 21.5752 6.71214 21.8467 6.73353ZM25.6499 1.84759C25.9085 1.70331 26.2006 1.62709 26.4938 1.62709C27.125 1.62709 27.7075 1.96892 28.0144 2.51958C28.481 3.35685 28.1796 4.41733 27.3424 4.88438C27.2086 4.95905 26.6043 5.20249 24.451 5.20249C24.0209 5.20249 23.6044 5.19238 23.2389 5.17916C24.1216 3.63023 25.1452 2.12914 25.6499 1.84759Z" fill="white"/>
</g>
<defs>
<filter id="filter0_d" x="0" y="0" width="39.8509" height="42.9999" filterUnits="userSpaceOnUse" color-interpolation-filters="sRGB">
<feFlood flood-opacity="0" result="BackgroundImageFix"/>
<feColorMatrix in="SourceAlpha" type="matrix" values="0 0 0 0 0 0 0 0 0 0 0 0 0 0 0 0 0 0 127 0"/>
<feOffset dy="4"/>
<feGaussianBlur stdDeviation="2"/>
<feColorMatrix type="matrix" values="0 0 0 0 0 0 0 0 0 0 0 0 0 0 0 0 0 0 0.25 0"/>
<feBlend mode="normal" in2="BackgroundImageFix" result="effect1_dropShadow"/>
<feBlend mode="normal" in="SourceGraphic" in2="effect1_dropShadow" result="shape"/>
</filter>
</defs>
</svg>
