<svg width="34" height="34" viewBox="0 0 34 34" fill="none" xmlns="http://www.w3.org/2000/svg">
<path d="M17 0C7.62167 0 0 7.62167 0 17C0 26.3783 7.62167 34 17 34C26.3783 34 34 26.3783 34 17C34 7.62167 26.3783 0 17 0ZM17 31.1667C9.18 31.1667 2.83333 24.82 2.83333 17C2.83333 9.18 9.18 2.83333 17 2.83333C24.82 2.83333 31.1667 9.18 31.1667 17C31.1667 24.82 24.82 31.1667 17 31.1667Z" fill="white"/>
<path d="M17.0004 13.7432C16.2071 13.7432 15.5837 14.3665 15.5837 15.1598V24.7932C15.5837 25.5865 16.2071 26.2098 17.0004 26.2098C17.7937 26.2098 18.4171 25.5865 18.4171 24.7932V15.1598C18.4171 14.3948 17.7937 13.7432 17.0004 13.7432Z" fill="white"/>
<path d="M17.0287 7.93265C16.2921 7.87599 15.6121 8.64099 15.5837 9.40599C15.5837 9.43432 15.5837 9.60432 15.5837 9.63265C15.5837 10.3977 16.1787 10.9643 16.9721 10.9927H17.0004C17.7654 10.9927 18.3887 10.3127 18.4171 9.57599C18.4171 9.54765 18.4171 9.26432 18.4171 9.26432C18.4171 8.44265 17.8221 7.93265 17.0287 7.93265Z" fill="white"/>
</svg>
