<svg width="21" height="17" viewBox="0 0 21 17" fill="none" xmlns="http://www.w3.org/2000/svg">
<path d="M13.049 0.510153L13.0493 0.510048C13.333 0.417562 14.0673 0.279215 14.4175 0.25388C14.4988 0.248257 14.6791 0.248867 14.8629 0.254936C15.0543 0.261259 15.2068 0.27232 15.2455 0.280325L15.2471 0.280659C15.3151 0.294247 15.422 0.314302 15.482 0.325413C15.7573 0.378702 15.9469 0.41902 16.049 0.447039L16.0507 0.447523C16.072 0.453182 16.0934 0.45883 16.1139 0.464214C16.1641 0.477465 16.2083 0.489115 16.2288 0.495491L16.2396 0.49889L16.2397 0.498638C16.6195 0.598595 17.3676 0.985016 17.8481 1.3389L13.049 0.510153ZM13.049 0.510153C12.4052 0.71911 11.8902 1.01402 11.4315 1.43098C11.135 1.70258 10.935 1.94412 10.5713 2.48213L10.3642 2.3421M13.049 0.510153L8.3005 0.972631M8.3005 0.972631L8.30089 0.97286C8.85128 1.29529 9.47002 1.94257 9.82752 2.57314C9.83012 2.5778 9.83286 2.58273 9.83572 2.58789C9.85767 2.62744 9.88673 2.6798 9.91595 2.71769C9.93347 2.74039 9.96875 2.78234 10.025 2.81176C10.0941 2.84785 10.1742 2.8545 10.2494 2.82873C10.3109 2.80762 10.3532 2.77011 10.3758 2.74788C10.4006 2.72337 10.4226 2.69596 10.4408 2.67165C10.4725 2.62945 10.5107 2.57244 10.554 2.50797C10.5598 2.49926 10.5657 2.49041 10.5717 2.48145L10.3642 2.3421M8.3005 0.972631C7.6578 0.59457 7.17456 0.434322 6.18127 0.282789C6.11114 0.272671 5.88161 0.265041 5.63227 0.264479C5.51175 0.264206 5.3934 0.265575 5.29729 0.268578C5.24915 0.270081 5.20789 0.271955 5.1754 0.27412C5.15918 0.275202 5.14609 0.276293 5.13602 0.277332C5.13272 0.277674 5.13002 0.277981 5.12788 0.27824C5.12407 0.278702 5.12202 0.279016 5.12141 0.279112L8.3005 0.972631ZM10.3642 2.3421C10.7339 1.79534 10.9464 1.53634 11.2629 1.24636L10.0454 2.45057C10.0954 2.53992 10.122 2.5909 10.1535 2.59412C10.1945 2.59832 10.2439 2.52127 10.3642 2.3421ZM3.66292 0.659101L3.66368 0.658773C3.93114 0.542397 4.50888 0.37973 4.84114 0.326944C4.84164 0.326866 4.84213 0.326786 4.84263 0.326708L4.80356 0.0797806L3.66292 0.659101ZM3.66292 0.659101C3.42663 0.760988 3.07662 0.938015 2.96263 1.0113M3.66292 0.659101L0.462211 4.3714M0.462211 4.3714L0.46217 4.37138C0.57344 4.01575 0.615974 3.89677 0.724609 3.61431C0.774782 3.48523 0.974184 3.09933 1.10782 2.87945C1.42328 2.36293 1.90491 1.80916 2.36047 1.43795C2.46545 1.35246 2.57323 1.26842 2.65648 1.20644C2.69846 1.17519 2.73208 1.15114 2.75508 1.13568L2.76508 1.12913C2.76553 1.12894 2.76594 1.12876 2.76633 1.1286C2.77508 1.12491 2.78215 1.12136 2.78562 1.1196C2.79332 1.11567 2.80076 1.11152 2.80633 1.10835C2.81822 1.10158 2.83273 1.09292 2.84817 1.08352C2.87945 1.06445 2.9201 1.03888 2.96263 1.0113M0.462211 4.3714L0.460747 4.37579M0.462211 4.3714L0.460747 4.37579M2.96263 1.0113C2.9627 1.01126 2.96277 1.01121 2.96284 1.01116L2.82684 0.801489L2.96216 1.0116C2.96232 1.0115 2.96247 1.0114 2.96263 1.0113ZM0.460747 4.37579C0.448139 4.41361 0.419039 4.54311 0.38706 4.70728C0.356625 4.86354 0.327895 5.02833 0.314309 5.12602C0.300636 5.23733 0.27838 5.38867 0.267435 5.46309L0.267265 5.46426L0.267087 5.46544M0.460747 4.37579L0.267087 5.46544M0.267087 5.46544C0.257245 5.53023 0.25 5.75606 0.25 6.0109C0.25 6.2617 0.256971 6.49174 0.267214 6.56871C0.281611 6.65855 0.301773 6.82751 0.31487 6.94751C0.421807 7.88567 0.7416 8.91997 1.24649 9.93408L1.24661 9.93432M0.267087 5.46544L1.24661 9.93432M1.24661 9.93432C2.17776 11.8096 3.5927 13.5489 5.72074 15.4113C5.97769 15.6356 6.39252 15.9753 6.75092 16.2598C6.90525 16.3823 7.04786 16.4936 7.16182 16.5802C7.24684 16.2583 7.29226 16.0838 7.30459 16.0292L7.30458 16.0292M1.24661 9.93432L7.30458 16.0292M13.2009 16.6052C13.2695 16.5541 13.3484 16.494 13.4347 16.427C13.7329 16.1953 14.1104 15.8885 14.4358 15.6092C14.9228 15.1902 15.1031 15.0252 15.7204 14.4321L13.2009 16.6052ZM13.2009 16.6052C13.1677 16.4789 13.1247 16.3124 13.0701 16.0996C13.0013 15.831 12.9236 15.5358 12.8989 15.4439C12.886 15.3957 12.8678 15.3244 12.848 15.247C12.8301 15.1767 12.8108 15.1013 12.7931 15.0336C12.7863 15.0076 12.7784 14.9778 12.7699 14.9454C12.7339 14.8082 12.6856 14.6243 12.6517 14.4925L12.6516 14.4922C12.629 14.4046 12.6031 14.3041 12.5758 14.1981C12.4717 13.7947 12.3469 13.3114 12.3067 13.1522C12.2863 13.0707 12.2776 13.0278 12.2752 12.9996C12.2752 12.9987 12.2751 12.9979 12.275 12.9971C12.2803 12.9918 12.2891 12.9838 12.303 12.9727C12.3408 12.9427 12.3968 12.9054 12.4861 12.8487L12.488 12.8475L12.488 12.8475C12.7809 12.6576 12.9875 12.4887 13.2604 12.2112C13.8246 11.6422 14.193 11.0027 14.4187 10.2091L14.419 10.2082C14.5268 9.8238 14.614 9.19951 14.6164 8.81404L14.6164 8.81252C14.6164 8.48237 14.553 8.02378 14.4588 7.6357L14.4583 7.63363C14.3665 7.26878 14.115 6.71243 13.8787 6.34974C13.2107 5.32216 12.2991 4.64013 11.2063 4.36635C10.8048 4.26539 10.6308 4.24589 10.1489 4.24817M13.2009 16.6052L9.46323 4.54687L9.41267 4.30204C9.41279 4.30201 9.41292 4.30198 9.41304 4.30196C9.64195 4.25471 9.77327 4.24818 10.1489 4.24817M10.1489 4.24817C10.1487 4.24817 10.1485 4.24817 10.1483 4.24817L10.1495 4.49817V4.24817C10.1493 4.24817 10.1491 4.24817 10.1489 4.24817ZM7.30458 16.0292L7.3051 16.027C7.32379 15.9475 7.44417 15.4841 7.52792 15.1689M7.30458 16.0292L7.54845 16.0843C7.56616 16.009 7.68569 15.5486 7.76981 15.232M7.76981 15.232L7.52765 15.1699C7.52774 15.1696 7.52783 15.1692 7.52792 15.1689M7.76981 15.232C7.79195 15.1457 7.86057 14.8823 7.92255 14.6454L7.76981 15.232ZM7.52792 15.1689C7.5505 15.0808 7.61888 14.8183 7.68054 14.5827M7.52792 15.1689L7.68054 14.5827M7.68054 14.5827C7.79301 14.1448 7.88059 13.8064 7.95329 13.5255C7.97502 13.4415 7.99542 13.3627 8.01476 13.2879L8.01474 13.2879L8.01562 13.2847C8.04585 13.1738 8.0732 13.0666 8.08682 13.0117C8.07721 13.0019 8.06288 12.9887 8.04192 12.9719C8.00973 12.946 7.96674 12.9152 7.90968 12.8779L7.68054 14.5827ZM20.0378 7.09691L20.0378 7.09694C19.9393 7.8314 19.7336 8.55274 19.4124 9.28796C18.6017 11.1419 17.4114 12.8045 15.7205 14.432L20.0378 7.09691ZM20.0378 7.09691C20.1054 6.59364 20.1153 6.45676 20.1153 6.07205M20.0378 7.09691L20.1153 6.07205M20.1153 6.07205C20.1153 4.15629 19.2575 2.38138 17.8485 1.33918L20.1153 6.07205ZM0.0199226 5.42789C-0.00664086 5.60277 -0.00664086 6.41517 0.0199226 6.60554L0.0664086 5.09363C0.0531269 5.2021 0.0309907 5.35263 0.0199226 5.42789ZM6.09876 10.6871C5.73937 9.79077 5.65809 8.82903 5.85362 7.87687L6.09876 10.6871ZM5.85364 7.87677C5.91811 7.56173 6.07152 7.12157 6.22772 6.79981L5.85364 7.87677Z" fill="white" stroke="black" stroke-width="0.5"/>
<path d="M8.36304 8.47056C8.36309 8.61726 8.37245 8.71418 8.39576 8.80786C8.41963 8.90376 8.46108 9.0082 8.53898 9.16721L8.53898 9.1672L8.53964 9.16856C8.78683 9.68089 9.27744 10.193 10.0839 10.7393L9.9437 10.9463C10.0631 11.0268 10.12 11.0749 10.1801 11.0793C10.2604 11.0851 10.3464 11.0128 10.5945 10.8356M8.36304 8.47056L10.0835 10.739C10.1173 10.7618 10.142 10.779 10.1614 10.7924C10.1735 10.8008 10.1836 10.8078 10.1924 10.8137M8.36304 8.47056C8.36517 8.27517 8.37356 8.22882 8.40063 8.14908C8.52039 7.79704 8.76204 7.58046 9.09087 7.50943C9.18336 7.48962 9.21846 7.48499 9.24788 7.48485C9.27753 7.48471 9.31309 7.48906 9.40635 7.50768M8.36304 8.47056L10.5327 7.73545M10.5945 10.8356L10.4484 10.6327C10.4486 10.6326 10.4487 10.6325 10.4488 10.6324M10.5945 10.8356L10.4492 10.6322C10.4491 10.6322 10.4489 10.6323 10.4488 10.6324M10.5945 10.8356C10.9819 10.5567 11.19 10.3796 11.4777 10.083M10.4488 10.6324C10.4107 10.6596 10.3777 10.6835 10.3485 10.7045C10.2901 10.7466 10.2472 10.7776 10.2106 10.8019C10.2038 10.8064 10.1977 10.8103 10.1924 10.8137M10.4488 10.6324C10.8258 10.361 11.0223 10.1934 11.2981 9.90914M10.1924 10.8137C10.2047 10.8221 10.2147 10.8285 10.2248 10.8342C10.2274 10.8356 10.2287 10.8362 10.2287 10.8363C10.2286 10.8365 10.2036 10.8254 10.1693 10.8312C10.1621 10.8324 10.1578 10.834 10.1577 10.8339C10.1576 10.8337 10.1675 10.8294 10.1924 10.8137ZM11.2981 9.90914C11.298 9.90921 11.2979 9.90928 11.2978 9.90935L11.4777 10.083M11.2981 9.90914C11.762 9.42834 11.9829 8.97303 12.0073 8.55514M11.2981 9.90914C11.2981 9.90905 11.2982 9.90897 11.2983 9.90888L11.4777 10.083M11.4777 10.083C11.967 9.57604 12.2282 9.0669 12.2569 8.56884M12.0073 8.55514C12.0073 8.55539 12.0073 8.55563 12.0073 8.55587L12.2569 8.56884M12.0073 8.55514C12.0223 8.26311 11.9503 8.02738 11.8228 7.85513C11.6959 7.68379 11.5015 7.55799 11.2387 7.5058L11.2387 7.5058L11.2377 7.50561C11.1536 7.48856 11.13 7.48584 11.1097 7.48596C11.0877 7.48608 11.0591 7.4897 10.9661 7.50806L10.9659 7.50811C10.7645 7.54767 10.6454 7.6149 10.5327 7.73545M12.0073 8.55514C12.0073 8.5549 12.0073 8.55466 12.0074 8.55442L12.2569 8.56884M12.2569 8.56884L10.5327 7.73545M10.5327 7.73545C10.5015 7.76983 10.4751 7.80021 10.4575 7.82198L10.4554 7.8246M10.5327 7.73545C10.533 7.73505 10.5334 7.73464 10.5338 7.73424L10.3488 7.56607L10.5316 7.73656C10.532 7.73619 10.5323 7.73582 10.5327 7.73545ZM10.4554 7.8246C10.4461 7.84622 10.4338 7.8671 10.4181 7.88657C10.3799 7.93396 10.3336 7.95882 10.2982 7.97154C10.2322 7.99521 10.1715 7.98948 10.1354 7.98244C10.095 7.97456 10.0518 7.95845 10.0118 7.9318C9.97809 7.90933 9.93171 7.86896 9.90296 7.80486M10.4554 7.8246L10.4474 7.83483C10.445 7.83796 10.444 7.8394 10.444 7.8394L10.444 7.83936L10.4462 7.83593C10.4473 7.83404 10.4496 7.83019 10.4524 7.82478C10.4549 7.81991 10.4596 7.81003 10.4643 7.79653C10.4666 7.78956 10.4696 7.77983 10.4721 7.76792C10.4744 7.75631 10.477 7.7394 10.477 7.71881C10.477 7.75403 10.4701 7.79023 10.4554 7.8246ZM9.90296 7.80486L9.89806 7.79854C9.88581 7.78331 9.867 7.76235 9.84325 7.73837C9.79435 7.68898 9.74052 7.64285 9.70487 7.61876M9.90296 7.80486C9.89913 7.79631 9.89561 7.78735 9.89248 7.77794C9.89691 7.79126 9.90149 7.80035 9.90345 7.80407L9.90611 7.80885L9.90708 7.81043C9.90703 7.81036 9.90634 7.80932 9.9048 7.80724L9.90296 7.80486ZM9.70487 7.61876C9.65421 7.58502 9.62426 7.56912 9.59076 7.55627C9.55332 7.54191 9.50275 7.52806 9.40635 7.50768M9.70487 7.61876C9.70505 7.61889 9.70523 7.61901 9.70541 7.61913L9.84409 7.41111L9.70444 7.61847C9.70458 7.61857 9.70473 7.61867 9.70487 7.61876ZM9.40635 7.50768C9.40592 7.50759 9.40549 7.5075 9.40507 7.50741L9.4567 7.26281L9.40768 7.50795C9.40723 7.50786 9.40679 7.50777 9.40635 7.50768Z" fill="white" stroke="black" stroke-width="0.5"/>
</svg>
