<svg width="42" height="35" viewBox="0 0 42 35" fill="none" xmlns="http://www.w3.org/2000/svg">
<path d="M29.6463 0.00930023C28.8897 0.0639877 27.3356 0.355667 26.7067 0.560753C25.3167 1.01194 24.191 1.65454 23.1883 2.56603C22.5366 3.16306 22.0991 3.69628 21.338 4.82197C20.9005 5.47369 20.9187 5.46913 20.6817 5.04529C19.907 3.67805 18.5716 2.27435 17.3502 1.55883C15.9557 0.738491 14.8938 0.392124 12.8019 0.0731049C12.4282 0.0184135 10.7465 0.013855 10.4502 0.0685463C10.3318 0.0913315 10.0765 0.136906 9.88968 0.164253C9.1696 0.278191 7.93453 0.624554 7.3375 0.884331C6.84074 1.09853 6.08876 1.4768 5.81987 1.64998C5.65125 1.75936 5.50085 1.85051 5.49173 1.85051C5.44616 1.85051 4.97674 2.20144 4.53467 2.56147C3.55026 3.36359 2.52027 4.54852 1.84121 5.66055C1.55865 6.1254 1.13025 6.9503 1.01176 7.25566C0.783882 7.84812 0.692733 8.10334 0.460303 8.84621C0.382826 9.07864 0.195971 10.0585 0.136724 10.4869C0.109379 10.7102 0.0638044 11.0201 0.0410171 11.1751C-0.0136724 11.5351 -0.0136724 13.2077 0.0410171 13.5996C0.0683618 13.7683 0.109379 14.1101 0.136724 14.3607C0.364597 16.3615 1.04366 18.549 2.10554 20.6819C4.06069 24.6196 7.02304 28.2519 11.4392 32.1166C12.5148 33.0554 14.8847 34.9376 14.994 34.9376C15.0533 34.9376 15.0806 34.8738 15.1581 34.5867C15.386 33.7254 15.509 33.2559 15.5409 33.1147C15.5774 32.9597 15.8235 32.0118 15.9967 31.36C16.0422 31.1823 16.1835 30.64 16.3111 30.1523C16.6119 28.981 16.8261 28.1561 16.9993 27.4862C17.0813 27.1854 17.1543 26.8937 17.1679 26.8345C17.2226 26.6021 17.0677 26.4106 16.5664 26.0825C14.9166 25.0069 13.7362 23.5805 13.0343 21.8122C12.3325 20.0621 12.173 18.1844 12.5558 16.3204C12.6788 15.7189 12.9796 14.8529 13.285 14.224C13.7817 13.1986 14.315 12.4648 15.1854 11.6217C16.3977 10.4504 17.8151 9.70301 19.4831 9.3612C19.9024 9.27461 20.1303 9.26093 20.8959 9.26093C21.853 9.25638 22.1675 9.29284 22.9468 9.48881C25.0569 10.0175 26.8297 11.3346 28.1423 13.3535C28.6026 14.0599 29.0948 15.1537 29.268 15.8419C29.4548 16.6121 29.5779 17.5145 29.5779 18.1434C29.5733 18.8908 29.4002 20.1305 29.1905 20.8779C28.7484 22.432 28.0329 23.6716 26.9346 24.7791C26.3968 25.326 26.0003 25.6495 25.4306 26.0187C24.706 26.479 24.6741 26.5474 24.8381 27.2036C24.943 27.6184 25.3258 29.0995 25.5491 29.9655C25.6357 30.3027 25.7679 30.804 25.8408 31.082C25.9137 31.36 26.0094 31.7429 26.0595 31.9297C26.1097 32.1166 26.2692 32.7227 26.4105 33.2742C26.7113 34.4454 26.8434 34.9468 26.8753 34.9969C26.9209 35.0744 28.7029 33.6889 30.0564 32.5267C31.0682 31.6563 31.4464 31.3099 32.7225 30.084C36.2454 26.6932 38.7384 23.2159 40.4383 19.3284C41.1174 17.7743 41.5549 16.243 41.7645 14.6798C41.9058 13.627 41.9286 13.3216 41.9286 12.5013C41.9286 8.40869 40.0965 4.5941 37.0521 2.34272C36.0312 1.59074 34.4316 0.756721 33.5657 0.528851C33.4927 0.506062 33.315 0.460487 33.1783 0.424026C32.9459 0.360222 32.5357 0.273632 31.9706 0.164253C31.8475 0.141464 31.6287 0.100449 31.492 0.0731049C31.2277 0.0184135 30.0382 -0.0180473 29.6463 0.00930023Z" fill="white"/>
<path d="M18.6081 14.9577C17.7422 15.1445 17.1087 15.7279 16.8079 16.612C16.7259 16.8536 16.7077 17.0131 16.7031 17.4369C16.7031 18.0887 16.7852 18.4214 17.1179 19.1004C17.683 20.2717 18.7768 21.3883 20.4721 22.5367C21.0464 22.9241 20.9188 22.9469 21.812 22.3089C22.6096 21.7346 23.038 21.37 23.6305 20.7593C24.6377 19.7157 25.1754 18.6675 25.2347 17.642C25.3076 16.2383 24.5465 15.2083 23.2385 14.9486C22.9013 14.8802 22.8466 14.8802 22.4774 14.9531C21.967 15.0534 21.6206 15.2402 21.3062 15.5775C21.1694 15.7279 21.0555 15.8646 21.0555 15.892C21.0555 15.9649 20.8823 15.933 20.855 15.8509C20.8185 15.7416 20.4904 15.4089 20.2671 15.2585C20.021 15.0944 19.8797 15.0397 19.4695 14.9531C19.0821 14.8757 18.991 14.8757 18.6081 14.9577Z" fill="white"/>
</svg>
