<svg width="24" height="26" viewBox="0 0 24 26" fill="none" xmlns="http://www.w3.org/2000/svg">
<path d="M11.819 0.371826C11.0219 0.371826 10.1941 1.28808 10.2127 2.06265V12.2076C10.2001 13.1009 10.9256 13.8984 11.819 13.8984C12.7124 13.8984 13.4379 13.1009 13.4253 12.2076V2.06265C13.45 1.03953 12.6161 0.371826 11.819 0.371826ZM6.16524 4.59888C6.01782 4.6315 5.87504 4.68504 5.74253 4.75739C0.67092 7.41452 -0.882774 12.8698 0.458722 17.3858C1.80022 21.9003 6.00444 25.7334 11.7661 25.7334C17.4459 25.7334 21.7034 22.0998 23.127 17.6496C24.549 13.1992 23.029 7.80324 17.8432 4.80947C17.1094 4.38068 16.0526 4.65747 15.6232 5.39061C15.1944 6.12375 15.471 7.18102 16.2048 7.60981C20.2472 9.9428 21.0786 13.5182 20.0619 16.698C19.0454 19.8777 16.0986 22.5102 11.7664 22.5102C7.41103 22.5102 4.49995 19.72 3.52367 16.4337C2.54705 13.1476 3.4442 9.58925 7.222 7.60981C7.86231 7.26099 8.20115 6.43892 7.99268 5.74027C7.78437 5.04145 7.05055 4.53928 6.32384 4.59812C6.27092 4.59558 6.21799 4.59558 6.16524 4.59812V4.59888Z" fill="#FF5252"/>
</svg>
