<svg width="18" height="22" viewBox="0 0 18 22" fill="none" xmlns="http://www.w3.org/2000/svg">
<path fill-rule="evenodd" clip-rule="evenodd" d="M8.96754 11C11.5616 11 13.6647 8.53759 13.6647 5.50003C13.6647 2.46241 12.9742 0 8.96754 0C4.96087 0 4.27026 2.46241 4.27026 5.50003C4.27026 8.53759 6.37335 11 8.96754 11Z" fill="#17181A"/>
<path fill-rule="evenodd" clip-rule="evenodd" d="M17.9247 18.9401C17.8368 14.0576 17.1122 12.6663 11.5674 11.7856C11.5674 11.7856 10.7868 12.6609 8.96759 12.6609C7.14835 12.6609 6.36769 11.7856 6.36769 11.7856C0.883344 12.6567 0.11468 14.0273 0.0136106 18.7815C0.00532297 19.1697 0.00148235 19.1901 0 19.145C0.000336897 19.2295 0.000741174 19.3856 0.000741174 19.658C0.000741174 19.658 1.32084 21.9999 8.96759 21.9999C16.6142 21.9999 17.9344 19.658 17.9344 19.658C17.9344 19.483 17.9346 19.3613 17.9348 19.2786C17.9333 19.3064 17.9303 19.2524 17.9247 18.9401Z" fill="#17181A"/>
</svg>
