<svg width="24" height="25" viewBox="0 0 24 25" fill="none" xmlns="http://www.w3.org/2000/svg">
<path d="M22.9966 0.97804C22.5591 0.53725 22.0063 0.228473 21.4015 0.0870037C20.7967 -0.0544655 20.1643 -0.0229185 19.5766 0.17804L2.28664 5.97804C1.64585 6.18564 1.08393 6.58435 0.67636 7.12063C0.268789 7.65691 0.0350855 8.30506 0.00663957 8.97804C-0.0356707 9.64713 0.124967 10.3134 0.467537 10.8897C0.810106 11.466 1.31865 11.9255 1.92664 12.208L7.72664 14.908L13.4066 9.22804C13.5949 9.03974 13.8503 8.93395 14.1166 8.93395C14.3829 8.93395 14.6383 9.03974 14.8266 9.22804C15.0149 9.41634 15.1207 9.67174 15.1207 9.93804C15.1207 10.2043 15.0149 10.4597 14.8266 10.648L9.14664 16.328L11.8466 22.128C12.1122 22.7011 12.5352 23.1869 13.0664 23.5286C13.5976 23.8704 14.215 24.054 14.8466 24.058H15.0466C15.7196 24.0296 16.3678 23.7959 16.9041 23.3883C17.4403 22.9807 17.839 22.4188 18.0466 21.778L23.8166 4.37804C24.0111 3.79128 24.0373 3.1618 23.8924 2.56089C23.7474 1.95999 23.4372 1.41167 22.9966 0.97804Z" fill="white"/>
</svg>
