<svg width="26" height="26" viewBox="0 0 26 26" fill="none" xmlns="http://www.w3.org/2000/svg">
<path d="M25.0341 7.70852C24.6384 6.79283 23.5477 6.09782 22.6066 6.16377C21.6656 6.22972 20.5774 5.86192 20.0955 5.40281C19.6135 4.9437 19.2229 3.85807 19.2584 2.91194C19.2939 1.96581 18.5659 0.905545 17.635 0.535212C16.7041 0.164879 15.446 0.446433 14.8271 1.15413C14.2082 1.86182 13.1707 2.38181 12.5112 2.4021C11.8517 2.42239 10.8016 1.92777 10.1624 1.23783C9.52319 0.547895 8.25239 0.301851 7.3367 0.69755C6.42101 1.09325 5.72093 2.18396 5.78688 3.12501C5.85283 4.06606 5.48503 5.15423 5.02592 5.63617C4.56681 6.11811 3.48117 6.50367 2.54012 6.47323C1.59906 6.44279 0.53372 7.16824 0.163386 8.09914C-0.206948 9.03005 0.0746074 10.2882 0.7823 10.9071C1.48999 11.526 2.00998 12.5634 2.03027 13.2204C2.05057 13.8774 1.55848 14.93 0.866006 15.5692C0.173532 16.2084 -0.0750481 17.4767 0.325724 18.3975C0.726496 19.3182 1.81213 20.0132 2.75319 19.9473C3.69424 19.8813 4.78241 20.2491 5.26435 20.7082C5.7463 21.1673 6.13692 22.2479 6.10141 23.194C6.0659 24.1402 6.79388 25.2004 7.72733 25.5708C8.66077 25.9411 9.91636 25.6595 10.5353 24.9518C11.1542 24.2442 12.1891 23.7242 12.8486 23.714C13.5081 23.7039 14.5582 24.1934 15.2025 24.8834C15.8468 25.5733 17.115 25.8092 18.0307 25.4135C18.9464 25.0178 19.6465 23.9322 19.5805 22.9911C19.5146 22.0501 19.8824 20.9619 20.3415 20.4799C20.8006 19.998 21.8837 19.6124 22.8298 19.6505C23.776 19.6885 24.8362 18.958 25.2066 18.0246C25.5769 17.0911 25.3004 15.8356 24.5877 15.2116C23.8749 14.5876 23.3549 13.5628 23.3372 12.8957C23.3194 12.2286 23.8115 11.1861 24.5065 10.5469C24.8528 10.1715 25.0861 9.70592 25.1794 9.20376C25.2728 8.7016 25.2224 8.18329 25.0341 7.70852ZM14.6343 17.5858C13.7379 17.9733 12.7468 18.0863 11.7862 17.9103C10.8256 17.7344 9.93879 17.2775 9.23796 16.5974C8.53712 15.9174 8.05376 15.0447 7.84902 14.0898C7.64429 13.135 7.72739 12.1409 8.08781 11.2332C8.44823 10.3256 9.06977 9.54533 9.87378 8.99105C10.6778 8.43677 11.6282 8.13344 12.6046 8.11943C13.5811 8.10542 14.5397 8.38137 15.3593 8.91235C16.1789 9.44333 16.8226 10.2055 17.2089 11.1024C17.7267 12.3027 17.7473 13.6594 17.2661 14.8749C16.7848 16.0904 15.8411 17.0653 14.6419 17.5858H14.6343Z" fill="#FF5252"/>
</svg>
