<svg width="25" height="27" viewBox="0 0 25 27" fill="none" xmlns="http://www.w3.org/2000/svg">
<path d="M24.24 9.71651C23.6156 9.02801 23.2899 8.92965 23.0185 8.92965H21.6612C20.9283 3.94617 17.3181 0.438064 12.5136 0.372491C9.93485 0.339705 7.41042 1.52 5.67318 3.61831C4.42454 5.09368 3.63735 6.96249 3.33876 9.02801H1.9544C1.68295 9.02801 1.35722 9.12637 0.732899 9.81487C0.135722 10.4706 0 10.864 0 11.2247V15.5852C0 15.9459 0.135722 16.3393 0.732899 17.0278C1.35722 17.7163 1.68295 17.8147 1.9544 17.8147H3.71878C3.77307 17.8147 3.82736 17.8147 3.85451 17.7819C4.26167 20.8966 6.43323 23.6834 9.14767 24.7653C9.06623 24.9292 9.03909 25.0932 9.03909 25.2899C9.03909 25.88 9.44625 26.3718 9.93485 26.3718H13.3822C13.8708 26.3718 14.278 25.88 14.278 25.2899C14.278 24.6997 13.8708 24.2079 13.3822 24.2079H9.93485C9.88056 24.2079 9.79913 24.2079 9.74484 24.2407C6.84039 23.3227 4.75027 20.4048 4.42454 17.5196C4.75027 17.2573 4.99457 16.8311 4.99457 16.3393V10.4378C5.04886 8.40507 5.70033 6.56905 6.92182 5.12647C8.33333 3.42159 10.3692 2.4708 12.4864 2.50358C16.7481 2.56916 19.7883 5.7494 20.0054 10.2739C20.0054 10.3067 20.0054 10.3067 20.0054 10.3394V16.3065C20.0054 17.0934 20.5755 17.7491 21.2812 17.7491H23.0456C23.317 17.7491 23.6428 17.6507 24.2671 16.9622C24.8643 16.2737 25 15.8803 25 15.5196V11.1591C24.9729 10.7985 24.8371 10.405 24.24 9.71651ZM3.20304 15.6508H2.17155C2.06297 15.5524 1.90011 15.3885 1.81868 15.2574V11.5525C1.92725 11.4214 2.06297 11.2575 2.17155 11.1591H3.20304V15.6508ZM23.1813 15.1918C23.0727 15.3229 22.937 15.4869 22.8284 15.5852H21.797V11.0935H22.8284C22.937 11.1919 23.0999 11.3558 23.1813 11.487V15.1918Z" fill="#FF5252"/>
</svg>
